<svg width="49" height="48" viewBox="0 0 49 48" fill="none" xmlns="http://www.w3.org/2000/svg">
<path d="M34.4853 10.6508C35.152 9.98412 35.4853 9.65079 35.8995 9.65079C36.3137 9.65079 36.6471 9.98412 37.3137 10.6508L40.8493 14.1863C41.516 14.853 41.8493 15.1863 41.8493 15.6005C41.8493 16.0147 41.516 16.3481 40.8493 17.0147L17.5148 40.3493C16.8481 41.0159 16.5148 41.3493 16.1005 41.3493C15.6863 41.3493 15.353 41.0159 14.6863 40.3493L11.1508 36.8137C10.4841 36.1471 10.1508 35.8137 10.1508 35.3995C10.1508 34.9853 10.4841 34.652 11.1508 33.9853L34.4853 10.6508Z" stroke="white" stroke-width="2"/>
<path d="M37.3137 16.3076L39.435 18.4289M34.4853 19.136L36.6066 21.2574M31.6569 21.9645L33.7782 24.0858M28.8284 24.7929L30.9498 26.9142M26 27.6213L28.1213 29.7426M23.1716 30.4498L25.2929 32.5711M20.3432 33.2782L22.4645 35.3995M17.5147 36.1066L19.6361 38.2279" stroke="white" stroke-width="2" stroke-linecap="round"/>
<path d="M23.3376 14.7101C22.2856 13.558 20.7714 12.8353 19.0883 12.8353C15.911 12.8353 13.3353 15.411 13.3353 18.5883C13.3353 20.2756 14.0617 21.7933 15.2188 22.8456" stroke="white" stroke-width="2" stroke-linecap="round"/>
<path d="M19.0883 10.4382V9" stroke="white" stroke-width="2" stroke-linecap="round"/>
<path d="M13.3253 24.3513L12.3083 25.3683" stroke="white" stroke-width="2" stroke-linecap="round"/>
<path d="M9.49999 18.5883L10.9382 18.5883" stroke="white" stroke-width="2" stroke-linecap="round"/>
<path d="M12.3083 11.8083L13.3253 12.8253" stroke="white" stroke-width="2" stroke-linecap="round"/>
<path d="M25.8682 11.8084L24.8512 12.8254" stroke="white" stroke-width="2" stroke-linecap="round"/>
</svg>
