<svg width="49" height="48" viewBox="0 0 49 48" fill="none" xmlns="http://www.w3.org/2000/svg">
<path d="M20.7307 10.4705L12.5276 18.6737C7.47466 23.7268 7.47471 31.9194 12.5277 36.9724C17.5808 42.0255 25.7734 42.0255 30.8265 36.9725L39.0296 28.7694M20.7307 10.4705L22.787 8.41423C23.4536 7.74756 23.787 7.41422 24.2012 7.41422C24.6154 7.41422 24.9487 7.74755 25.6154 8.41423L27.204 10.0028C27.8706 10.6694 28.2039 11.0028 28.2039 11.417C28.2039 11.8312 27.8706 12.1645 27.204 12.8312L25.1477 14.8875M20.7307 10.4705L25.1477 14.8875M25.1477 14.8875L16.9447 23.0906C14.3311 25.7043 14.3311 29.9418 16.9447 32.5555C19.5584 35.1691 23.796 35.1691 26.4096 32.5555L34.6126 24.3524M34.6126 24.3524L36.6689 22.2962C37.3356 21.6295 37.6689 21.2962 38.0831 21.2962C38.4973 21.2962 38.8307 21.6295 39.4973 22.2962L41.0859 23.8847C41.7526 24.5514 42.0859 24.8847 42.0859 25.2989C42.0859 25.7132 41.7526 26.0465 41.0859 26.7132L39.0296 28.7694M34.6126 24.3524L39.0296 28.7694" stroke="white" stroke-width="2"/>
<path d="M36.1904 15.2032L29.823 17.7845L32.2132 19.1804L26.473 21.8918" stroke="white" stroke-width="2" stroke-linecap="round"/>
</svg>
