<svg width="49" height="48" viewBox="0 0 49 48" fill="none" xmlns="http://www.w3.org/2000/svg">
<path d="M10.8 25.8099C11.8332 22.4005 12.3498 20.6958 13.5516 19.5881C13.8648 19.2994 14.2078 19.0449 14.5749 18.8289C15.9835 18 17.7648 18 21.3273 18H27.006C30.5686 18 32.3498 18 33.7584 18.8289C34.1255 19.0449 34.4686 19.2994 34.7818 19.5881C35.9836 20.6958 36.5001 22.4005 37.5333 25.8099V25.8099C39.3112 31.677 40.2002 34.6106 39.0597 36.7859C38.7705 37.3376 38.3971 37.8409 37.953 38.2777C36.2019 40 33.1366 40 27.006 40H21.3273C15.1967 40 12.1315 40 10.3803 38.2777C9.93622 37.8409 9.56283 37.3376 9.27359 36.7859C8.13317 34.6106 9.02212 31.677 10.8 25.8099V25.8099Z" stroke="white" stroke-width="2"/>
<path d="M19.0859 27.8275C19.6011 26.1472 21.1527 25 22.9102 25H25.0898C26.8473 25 28.3989 26.1472 28.9141 27.8275V27.8275C29.7025 30.3989 27.7794 33 25.0898 33H22.9102C20.2206 33 18.2975 30.3989 19.0859 27.8275V27.8275Z" stroke="white" stroke-width="2"/>
<circle cx="24.1666" cy="13" r="5" stroke="white" stroke-width="2"/>
</svg>
