<svg width="49" height="48" viewBox="0 0 49 48" fill="none" xmlns="http://www.w3.org/2000/svg">
<path d="M20.9837 36.7472C24.3801 35.5963 28.0231 33.7526 30.9767 30.799C37.5496 24.2261 38.6259 14.2392 38.8022 11.1529C38.833 10.6132 38.4345 10.2148 37.8948 10.2456C34.8085 10.4218 24.8216 11.4982 18.2488 18.0711C15.2952 21.0247 13.4515 24.6676 12.3006 28.064C14.1794 28.8949 15.9761 30.0224 17.5007 31.547C19.0254 33.0717 20.1529 34.8683 20.9837 36.7472Z" stroke="white" stroke-width="2" stroke-linecap="round"/>
<circle cx="25.8345" cy="23.2131" r="4" transform="rotate(45 25.8345 23.2131)" stroke="white" stroke-width="2"/>
<path d="M15.02 22.2981C14.1966 21.8619 13.236 21.6807 12.2445 21.7746C11.253 21.8684 10.2691 22.2337 9.40178 22.8299C8.53443 23.4261 7.81732 24.2301 7.32974 25.153C6.84217 26.0759 6.60312 27.0817 6.63902 28.0592L12.3995 28.1629" stroke="white" stroke-width="2"/>
<path d="M26.7495 34.0277C27.1857 34.8512 27.3669 35.8117 27.273 36.8033C27.1792 37.7948 26.8139 38.7786 26.2177 39.6459C25.6215 40.5133 24.8175 41.2304 23.8946 41.718C22.9717 42.2056 21.9659 42.4446 20.9884 42.4087L20.8847 36.6482" stroke="white" stroke-width="2"/>
<path d="M15.5592 29.9084C14.8047 30.2653 14.0613 30.7437 13.4201 31.3849C11.2733 33.5317 10.9517 36.8235 10.9039 37.8413C10.8955 38.0193 11.0284 38.1521 11.2063 38.1437C12.2242 38.0959 15.5159 37.7743 17.6627 35.6276C18.304 34.9863 18.7824 34.2429 19.1393 33.4885" stroke="white" stroke-width="2" stroke-linecap="round"/>
</svg>
