<svg width="49" height="48" viewBox="0 0 49 48" fill="none" xmlns="http://www.w3.org/2000/svg">
<path d="M21.5 31.7698C20.0979 32.6555 19.1667 34.219 19.1667 36C19.1667 38.7614 21.4053 41 24.1667 41C26.9282 41 29.1667 38.7614 29.1667 36C29.1667 34.219 28.2356 32.6555 26.8335 31.7698M26.5 31.5V9.5C26.5 8.11929 25.3807 7 24 7C22.6193 7 21.5 8.11929 21.5 9.5V31.5" stroke="white" stroke-width="2"/>
<path d="M24.5 11H25.5M24.5 15H25.5M24.5 19H25.5M24.5 23H25.5M24.5 27H25.5M24.5 31H25.5" stroke="white" stroke-width="2" stroke-linecap="round"/>
</svg>
